<svg width="15" height="16" viewBox="0 0 15 16" fill="none" xmlns="http://www.w3.org/2000/svg">
<path fill-rule="evenodd" clip-rule="evenodd" d="M13 1.38867H5.75C5.19772 1.38867 4.75 1.83639 4.75 2.38867V3.38794H3.75V2.38867C3.75 1.2841 4.64543 0.388672 5.75 0.388672H13C14.1046 0.388672 15 1.2841 15 2.38867V9.63867C15 10.7432 14.1046 11.6387 13 11.6387H11.9993V10.6387H13C13.5523 10.6387 14 10.191 14 9.63867V2.38867C14 1.83639 13.5523 1.38867 13 1.38867ZM2 5.13867H9.25C9.80229 5.13867 10.25 5.58639 10.25 6.13867V13.3887C10.25 13.941 9.80229 14.3887 9.25 14.3887H2C1.44772 14.3887 1 13.941 1 13.3887V6.13867C1 5.58639 1.44772 5.13867 2 5.13867ZM0 6.13867C0 5.0341 0.895431 4.13867 2 4.13867H9.25C10.3546 4.13867 11.25 5.0341 11.25 6.13867V13.3887C11.25 14.4932 10.3546 15.3887 9.25 15.3887H2C0.89543 15.3887 0 14.4932 0 13.3887V6.13867Z" fill="#84848B"/>
</svg>
